<svg xmlns="http://www.w3.org/2000/svg" xmlns:xlink="http://www.w3.org/1999/xlink" width="466" height="243" viewBox="0 0 466 243"><defs><clipPath id="b"><rect width="466" height="243"/></clipPath></defs><g id="a" clip-path="url(#b)"><g transform="translate(18 14.001)"><path d="M4079.03,2414h32.953a19.1,19.1,0,0,1,19.052,19.056v54.789a19.108,19.108,0,0,1-19.052,19.06H4079.03a19.114,19.114,0,0,1-19.065-19.06v-54.789A19.111,19.111,0,0,1,4079.03,2414Z" transform="translate(-3956.934 -2373.5)" fill="#fff" fill-rule="evenodd"/><path d="M4129.786,2618.76h-56.779a15.133,15.133,0,0,1-15.089-15.089V2437.306a15.13,15.13,0,0,1,15.089-15.089h56.779a15.01,15.01,0,0,1,1.99.131V2410.1a6.559,6.559,0,0,1,6.546-6.546h0a6.57,6.57,0,0,1,6.558,6.546v20.648a6.476,6.476,0,0,1-.536,2.583,15.112,15.112,0,0,1,.536,3.971V2603.67a15.137,15.137,0,0,1-15.093,15.089Zm-44.867-174.708h32.955a19.116,19.116,0,0,1,19.06,19.064V2517.9a19.111,19.111,0,0,1-19.06,19.055h-32.955a19.108,19.108,0,0,1-19.055-19.055v-54.789a19.112,19.112,0,0,1,19.055-19.064Z" transform="translate(-3962.828 -2403.558)" fill="#d2dc72" fill-rule="evenodd"/><path d="M4083.774,2415l36.23-.144c13.218,1.68,19.322,11.563,18.769,25.95-1.008,14.5-9.225,21.586-22.948,22.83l-13.156-.266.367,39.778h-19.261V2415Zm19.466,9.042c8.945-1.283,15.809,1.2,16.28,15.285-.3,12.572-6.982,15.757-16.28,15.089v-30.375Z" transform="translate(-3888.383 -2371.012)" fill="#8abb2a" fill-rule="evenodd"/><path d="M4123.063,2414.7l22.927-.109-.161,9.853-17.978-.087c-10.364,1.929-8.047,12.986-8.544,20.98l24.17-.449.092,12.083-23.419-.249-.127,29.262c.925,7.593,4.914,11.406,11.659,11.847l12.869-.14,3.918.083-.117,9.142-4.023.153-24.449-.262c-8.435-.284-15.238-4.459-18.362-17.459l-.6-56.778c.335-11.638,8.025-17.349,22.145-17.869Z" transform="translate(-3839.019 -2371.8)" fill="#8abb2a" fill-rule="evenodd"/><path d="M4116,2439.519c-1.436-19.017,9.159-23.319,22.054-24.815,15.075-.9,24.555,5.393,26.4,21.447l-17.817-.048c-1.117-8.1-7.418-11.21-13.177-7.356-8.218,10.049,17.418,27.73,25.1,34.293,13.295,10.5,11.03,39.621-9.426,45.023l-12.475.449c-12.678.3-20.213-7.706-22.4-22.551l17.951-.314c.974,6.34,3.679,10.276,9.418,10,8.936-1.7,11.379-9.565,5.039-19.605-13.31-11.284-29.048-21.883-30.663-36.519Z" transform="translate(-3800.611 -2371.71)" fill="#8abb2a" fill-rule="evenodd"/><path d="M4033.4,2413.873h18.85l.2,5.86c11.394-4.926,19.985-8.408,28.992-.3,16.089-7.6,28.267-6.737,34.3,7.375l.838,79.186h-19.017v-75.529c-1.405-6.467-6.528-7.575-12.7-7.147v82.676H4065.4v-75.529c-1.4-6.467-6.52-7.575-12.694-7.147v82.676h-19.3v-92.119Z" transform="translate(-4033.404 -2373.859)" fill="#8abb2a" fill-rule="evenodd"/><path d="M4129.926,2506.889h19.554v-48.646h16.279v48.646h18.951V2437.4c-.366-14.121-11.232-22.974-26.6-23.031-17.529-.153-27.524,8.16-28.188,22.236v70.284Zm19.554-74.451c.641-5.193,2.329-7.283,8.042-7.842,5.786.148,7.845,3.486,8.237,8.635v14.094H4149.48v-14.888Z" transform="translate(-3755.508 -2372.435)" fill="#8abb2a" fill-rule="evenodd"/><path d="M4086.867,2423.554c3.26,7.627,7.7,11.135,13.087,11.345a75.279,75.279,0,0,1-26.915,12.5c-5.948-.375-11.625-1.885-17.145-3.4,13.938-2.745,24.319-9.486,30.973-20.443Z" transform="translate(-3968.648 -2345.982)" fill="#6e1414" fill-rule="evenodd"/><path d="M4086.871,2423.5l.018.042a22.482,22.482,0,0,0,5.74,8.445,11.811,11.811,0,0,0,7.326,2.885l.013.042a75.207,75.207,0,0,1-26.923,12.506h-.007c-5.729-.362-11.157-1.756-17.15-3.4l0-.046a50.814,50.814,0,0,0,18.209-7.139,41.561,41.561,0,0,0,12.748-13.293Zm13.016,11.417a11.857,11.857,0,0,1-7.288-2.894,22.487,22.487,0,0,1-5.735-8.421,41.6,41.6,0,0,1-12.738,13.269A50.81,50.81,0,0,1,4056,2444c5.951,1.636,11.348,3.017,17.041,3.376A75.185,75.185,0,0,0,4099.887,2434.92Z" transform="translate(-3968.648 -2345.982)" fill="#c47749"/><path d="M4110.718,2418.488l39.308,19.85c-20.021,26.339-53.773,27.032-89.729,23.629,24.035-5.93,40.686-20.618,50.421-43.479Z" transform="translate(-3955.973 -2360.572)" fill="#e3001b" fill-rule="evenodd"/><path d="M4110.707,2418.456l.022.011,39.333,19.863-.017.022a57.672,57.672,0,0,1-12.631,12.252,61.784,61.784,0,0,1-15.071,7.7c-9.778,3.457-21.433,5.137-35.629,5.137-7.589,0-15.984-.46-26.42-1.448l0-.046a79.077,79.077,0,0,0,16.645-6.079,67.927,67.927,0,0,0,13.919-9.307,69.71,69.71,0,0,0,11.239-12.48,84.5,84.5,0,0,0,8.6-15.6Zm39.284,19.891-39.26-19.826a84.513,84.513,0,0,1-8.6,15.585,69.73,69.73,0,0,1-11.247,12.489,67.956,67.956,0,0,1-13.929,9.313,79.048,79.048,0,0,1-16.52,6.049c10.37.979,18.723,1.435,26.278,1.435,14.191,0,25.84-1.679,35.613-5.134a61.75,61.75,0,0,0,15.059-7.692A57.6,57.6,0,0,0,4149.99,2438.347Z" transform="translate(-3955.973 -2360.572)" fill="#c47749"/></g></g></svg>