<svg xmlns="http://www.w3.org/2000/svg" xmlns:xlink="http://www.w3.org/1999/xlink" width="434" height="240" viewBox="0 0 434 240"><defs><clipPath id="b"><rect width="434" height="240"/></clipPath></defs><g id="a" clip-path="url(#b)"><g transform="translate(-3658.58 -2104.671)"><g transform="translate(3716.914 2193.712)"><path d="M3831.764,2208.109c-3.3,1.222-7.159.254-10.678,1.741-2.221.938-3.8,2.393-3.49,4.769.315,2.333,2.106,3.583,4.55,3.787,5.726.473,9.624-2.318,11.659-7.843C3834.644,2208.267,3833.777,2208.07,3831.764,2208.109Z" transform="translate(-3699.706 -2182.65)" fill="#2b6b84"/><path d="M3760.81,2204.373c2.2,0,4.407-.122,6.6.04,1.5.118,1.756-.419,1.727-1.756-.072-3.619-2-5.442-5.575-5.958-5.074-.738-8.083,2.089-10.957,5.461a1.594,1.594,0,0,0-.451,1.526c.229.863.917.667,1.555.659,2.365-.018,4.729-.007,7.1-.007Z" transform="translate(-3707.219 -2183.969)" fill="#2b6b84"/><path d="M3716.829,2201.436c4.192-.254,8.377-.254,11.638-3.712a7.883,7.883,0,0,0,2.321-7.489c-.738-3.021-3.253-4.192-6.363-4.723-3-.505-5.926.083-8.886-.229-.652-.068-1.318.079-1.469,1.286-.552,4.235-1.419,8.427-2.15,12.637-.229,1.372-.072,2.447,1.792,2.25A29.1,29.1,0,0,1,3716.829,2201.436Z" transform="translate(-3711.839 -2185.27)" fill="#2b6b84"/></g><path d="M4059.012,2176.423a7.544,7.544,0,0,0-5.754-1.971c-20.33.018-40.653-.036-60.99.018-18.875.061-37.765.226-56.64.351-.753.007-1.67-.469-2.193.376-.573.924.244,1.48.688,2.207,1.082,1.813,2.092,3.7,3.053,5.6a1.717,1.717,0,0,1-1.218,2.719c-9.008,2.5-17.736,5.83-26.643,8.581-5.719,1.763-11.5,3.422-17.256,5.131-6.342,1.892-12.583,4.124-18.868,6.216-.079.025-.15.157-.222.157-5.3-.089-5.346,3.881-5.926,7.492-.81,5-1.634,10-2.551,14.98-1.053,5.7-2.286,11.373-3.275,17.087-.465,2.666-2.106,5.654-.91,7.933,1.032,2,3.991,2.985,6.012,4.507a123.42,123.42,0,0,0,19.233,11.462c5.482,2.719,10.706,6.378,16.8,7.295,5.461.817,11.129.341,16.711.33q33.16-.07,66.335-.226c1.3,0,1.849.531,2.021,1.964.208,1.773-.724,3.286-.81,5.443,1.4-1.652,3.418-1.673,4.45-3.153,2.637-3.791,6.292-4.461,10.756-4.393,16.546.254,33.085-.025,49.632.176,5.539.068,10.118-2.805,10.054-9.928-.064-7.718-.021-15.432.007-23.132.014-.86-.473-1.906.566-2.576v-60.4C4060.911,2179.361,4060.453,2177.713,4059.012,2176.423Zm-127.247,25.905a13.124,13.124,0,0,1,9.725-1.29c3.06.613,4.772,4.4,3.425,7.256-1.755,3.716-5.425,3.615-8.083,4.368-1.154-.09-1.741-.1-2.314-.2-2.63-.469-5.116-1.448-5.718-4.278C3928.261,2205.7,3929.666,2203.611,3931.765,2202.328Zm-10.9,46.7c-.523,1.15-.215,2.648-.394,3.991-.194,1.559-.431,2.587-2.774,2.44-5.683-.355-11.4-.122-17.112-.122a1.059,1.059,0,0,0,.007.158c-5.79,0-11.58-.115-17.363.065-2.078.057-2.551-.838-2.143-2.419.6-2.325.717-4.715,1.147-7.051,2.464-13.236,4.557-26.522,6.535-39.836.3-2.071,1.032-3.074,3.3-2.963a100.252,100.252,0,0,0,10.168.047c1.734-.079,1.72.423,1.556,1.874-.287,2.519-.839,4.966-1.262,7.453-1.777,10.358-3.325,20.746-5.023,31.111-.279,1.72.416,2.34,1.92,2.34,6.307-.018,12.6-.043,18.912-.161C3920.694,2245.89,3922.235,2246,3920.866,2249.025Zm21.075-28.123c-.752,3.7-1.268,7.47-1.906,11.2-1.211,7.148-2.487,14.292-3.626,21.448-.208,1.258-.352,1.928-1.892,1.885-3.69-.115-7.374-.086-11.064.011-1.3.032-1.684-.412-1.5-1.595q2.257-13.807,4.479-27.607c.422-2.53.15-5.579,1.5-7.431,1.275-1.734,4.393-.269,6.671-.519,1.712-.075,3.425-.226,5.152-.212C3941.612,2218.093,3942.35,2218.9,3941.941,2220.9Zm49.1,15.213c-.373,5.833-2.522,11.369-2.465,17.245.007,1.347-.688,2.318-2.6,2.161-2.91-.244-5.862.057-8.807.072-3.39.022-3.669-.484-3.067-3.819,1.118-6.181,2.208-12.379,3.081-18.6.574-4.181-1.963-6.686-6.177-6.8-7.166-.211-9.7,3.612-10.734,10.047-.924,5.78-1.885,11.566-2.695,17.367-.193,1.433-.731,1.792-2.078,1.77-3.683-.061-7.367-.122-11.035.083-1.67.082-1.469-.291-1.348-1.666.595-6.754,2.214-13.336,3.11-20.033.53-4.009,1.268-7.986,1.741-12.014.308-2.63,1.433-4.135,4.256-3.87a54.115,54.115,0,0,0,6.858.036c3.963-.125,3.956-.036,3.325,3.977a7.908,7.908,0,0,0,.129,1.476c2.063-.727,3.232-2.411,4.938-3.368,4.521-2.555,9.395-2.748,14.411-2.454,6.4.376,10.111,4.608,10.2,10.613C3992.125,2230.956,3991.194,2233.55,3991.043,2236.116Zm52.813-16.188q-3.117,2.752-6.32,5.378c-3.7,3.017-6.436,7.13-10.749,9.463-.709.372-.989.824-.3,1.727,4.356,5.729,8.627,11.537,12.92,17.324.308.412,1.024.645.759,1.326-.322.821-1.218.376-1.663.376-4.486.118-8.979.072-13.458-.029-.7-.021-1.813.391-2.107-.616-.565-1.963-2.228-3.132-3.231-4.794-2.529-4.214-5.3-8.305-7.961-12.44-.208.082-.43.161-.652.233-.81,5.152-1.584,10.3-2.415,15.453-.244,1.526-.932,2.311-2.773,2.168a58.466,58.466,0,0,0-10.018-.061c-2.193.236-2.092-.691-1.871-2.039q1.871-11.636,3.813-23.254c1.526-9.194,3.175-18.384,4.536-27.6.265-1.695.889-2.085,2.293-2.085,3.569,0,7.145.1,10.713-.025,1.562-.053,1.77.835,1.612,1.842-.924,5.808-1.949,11.605-2.909,17.4-.846,5.116-1.634,10.233-2.279,14.267,4.02-3.655,8.584-7.779,13.092-11.953,1.706-1.566,3.146-3.937,5.654-3.8,4.213.222,8.406.111,12.6.011.43-.011,1.376-.527,1.6.444C4044.9,2219.3,4044.236,2219.6,4043.856,2219.928Z" transform="translate(22.061 7.204)" fill="#2b6b84"/><path d="M3801.685,2111.67c-2.493,1.344-5.324,1.125-7.982,1.68a71.773,71.773,0,0,0-22.444,8.79,66.051,66.051,0,0,0-10.162,7.56c-4.256,3.837-5.711,9.162-7.94,14.074-2.616,5.747-5.116,11.537-7.689,17.3-.143.333-.473.545-.093.921s.645.226.939-.072c.874-.86,1.756-1.716,2.608-2.58,7.389-7.481,16.618-10.434,26.894-11.2a117.891,117.891,0,0,1,27.854,1.688,156.386,156.386,0,0,1,24.343,6.177c5.826,1.939,11.559,4.092,17.17,6.528a177.469,177.469,0,0,1,25.668,13.573c4.629,2.985,9.309,5.876,13.68,9.233,1.29,1,1.333,2.01.932,3.88-.881,4.1-2.292,8.151-2.6,12.759,7.7-2.487,15.121-4.93,22.559-7.281,9.982-3.171,20-6.256,29.982-9.416,2.737-.864,5.475-1.8,8.206-2.594,1.935-.566,1.339-1.161.81-2.135q-4.354-8.024-8.735-16.034c-3.017-5.529-5.883-11.154-9.029-16.579-2.687-4.644-5.152-9.42-7.99-13.992-2.658-4.285-4.873-8.84-7.331-13.368-1.627,4.657-3.382,9-4.608,13.479-.544,1.985-1.591,1.759-2.594,1.182-7.166-4.124-14.913-6.951-22.616-9.785a216.352,216.352,0,0,0-31.953-9.441c-7.854-1.584-15.65-3.379-23.712-3.415-.452,0-.781-.448-.9-.935Z" transform="translate(8.908 0.001)" fill="#2b6b84"/><path d="M3802.828,2252.563c3.081,5.453,6.206,10.893,9.258,16.368,3.017,5.421,6.077,10.817,8.907,16.342,2.723,5.317,5.848,10.415,8.478,15.786,1.813,3.705,4.1,7.2,5.976,10.9.244.491.717,1.229,1.44,1.125.982-.139.4-1.068.588-1.6,1.268-3.637,2.379-7.32,3.612-10.968.366-1.082.688-1.7,2.379-1.053,4.658,1.8,8.979,4.332,13.694,6.02,5.289,1.9,10.434,4.171,15.809,5.88,3.783,1.208,7.539,2.512,11.344,3.665a206.172,206.172,0,0,0,20.96,4.873,164.373,164.373,0,0,0,34.125,3.038,73.354,73.354,0,0,0,35.321-9.287c6-3.414,11.888-7.409,15.808-13.332,1.82-2.752,2.809-6.059,4.157-9.126,2.171-4.969,4.328-9.95,6.514-14.916a8.359,8.359,0,0,0,1-3.762c-1.3,1.275-2.257,2.182-3.175,3.121-3.289,3.325-7.338,5.442-11.573,7.3-10.032,4.386-20.516,4.267-31.144,3.415a154.59,154.59,0,0,1-34.067-6.9,172.009,172.009,0,0,1-28.585-11.7c-4.766-2.5-9.66-4.816-14.246-7.617-5.74-3.5-11.229-7.431-16.84-11.15-.774-.52-.394-1.05-.265-1.688.8-3.93,1.447-7.9,2.351-11.8.63-2.7-.746-2.608-2.5-2.024-4.142,1.354-8.248,2.823-12.382,4.192-9.008,3-17.965,6.134-27.052,8.872-6.657,2.006-13.128,4.593-19.95,6.1A.839.839,0,0,0,3802.828,2252.563Z" transform="translate(15.51 13.935)" fill="#2b6b84"/><path d="M3890.149,2183.8c-4.844-3.458-9.681-6.944-14.583-10.319-5.03-3.469-10.132-6.84-15.844-9.187a31.443,31.443,0,0,1-4.486-2.58c-5.267-3.282-11.129-1.881-16.726-1.956-14.425-.212-28.858.018-43.29-.018-9.868-.007-19.736-.3-29.6-.161-2.573.036-2.386-.993-2.386-2.766-.007-1.312.953-2.368.681-4.07-1.605,1.519-3.548,2.107-4.816,3.8-2.924,3.913-7.166,3.214-11.251,2.974-.652-.029-1.312-.05-1.978-.05-17.256-.014-34.519.079-51.781-.1-4.378-.039-8.778.061-13.157-.107-8.126-.283-11.408,1.7-13.35,8.66v87.5c3.268,5.271,5.124,6.367,11.645,6.252,7.051-.107,14.11.093,21.161.122q7.2.043,14.411-.007c5.411-.021,10.813-.157,16.224-.143,8.227,0,16.468.129,24.687.129q18.778.033,37.557-.043c7.309-.036,14.625.387,21.935-.065,1.01-.068,2.006.552,3.06.144-.81-2.866-2.666-5.239-4.063-7.779-1.233-2.279.416-2.7,1.261-2.913,3.533-.867,6.887-2.24,10.341-3.333,6.966-2.2,13.874-4.514,20.9-6.492,8.026-2.243,15.808-5.246,23.834-7.5,3.877-1.093,7.768-2.44,11.6-3.859a1.961,1.961,0,0,0,1.562-1.881c1.548-10.86,4.021-21.559,5.625-32.412a44.4,44.4,0,0,1,1.82-9.122A2.24,2.24,0,0,0,3890.149,2183.8Zm-154.126,28.216a45.884,45.884,0,0,1-15.328,1.978c-4.973-.208-5.841.949-6.407,6.18-.387,3.49-1.017,6.951-1.641,10.409-.108.605-.043,1.552-1.412,1.487-4.02-.179-8.047-.179-12.06-.1-1.383.022-1.641-.527-1.448-1.637,1.3-7.5,2.7-14.984,3.884-22.509,1.347-8.524,3.11-16.987,4.027-25.59a2.443,2.443,0,0,1,2.816-2.433c3.669.075,7.338.021,9.917.021,7.3.348,13.53-.29,19.714.8,3.4.613,6.7,1.483,9.259,3.78a13.488,13.488,0,0,1,2.844,16.7C3747.137,2206.84,3742.128,2210.183,3736.022,2212.014Zm130.1-4.984c-.616,5.561-1.785,11.068-2.781,16.586-.509,2.788.229,6.636-1.885,8.062-1.906,1.286-5.41.265-8.219.265-.157,0-.322.133-.487.133-4.507-.007-4.507-.007-3.626-4.264.015-.083-.079-.172-.237-.494-3.8,3.2-7.961,5.3-12.827,5.46-5.454.179-10.792-.187-14.11-5.5-.738-1.171-1.219-.244-1.677.186a15.452,15.452,0,0,1-6.758,3.59c-6.894,1.913-13.988,1.931-21.111,1.236-5.217-.505-5.7-.967-5.1-5.984.072-.548.036-1.125.158-1.662.387-1.727,1.075-2.788,3.175-1.827a23.134,23.134,0,0,0,4.973,1.573c4.285.824,8.571,1.211,12.72-.638,1.684-.745,2.465-3.221,1.2-3.733-1.691-.67-3.088-1.763-4.988-2.2-3.941-.928-8.04-1.773-11.286-4.583-.939-.817-1.942-.638-1.963.982a2.286,2.286,0,0,1-2.608,2.5,49.439,49.439,0,0,0-4.995-.075c-7.3-.047-14.618.118-21.914.01-2-.036-1.863.642-1.455,2.039,1.146,3.845,5.36,6.439,10.534,6.174a41.634,41.634,0,0,0,11.8-1.9c3.089-1.064,3.175-.864,2.472,2.343a9.759,9.759,0,0,0-.186,2.232c.021,2.612-1.634,3.386-3.855,3.608a20,20,0,0,0-2.372.423c-7.7,1.666-15.464,2.422-22.96-.534-4.844-1.906-8.872-5.181-9.387-10.882-.81-9.151,2.114-16.607,10.362-21.591,7.61-4.6,15.737-5.629,24.271-3.77a13.469,13.469,0,0,1,9.2,6.525c1.14,2.171,1.347,1,2.121.279,1.727-1.594,3.146-3.859,5.167-4.715,8.6-3.683,17.564-3.59,26.6-1.738,1.276.25,1.57.957,1.2,1.838a14.3,14.3,0,0,0-.968,5.253c-.05,2.16-1.4,1.949-2.4,1.365-3.877-2.24-8.1-1.931-12.232-1.727-1.741.082-4.042.444-4.429,2.705-.451,2.548,1.813,2.981,3.569,3.662.43.168.91.208,1.347.38,4.751,1.86,10.168,2.314,13.8,6.8a11.14,11.14,0,0,1,5.719-4.038c6.607-2.44,13.608-2.594,20.509-3.379.831-.09,1.834.115,2.208-.824a2.906,2.906,0,0,0-.423-2.809c-1.1-1.319-2.25-2.5-4.306-2.63-5.6-.319-11.237.079-16.16,2.53-3.576,1.784-2.508-.387-2.486-1.892.064-4.6.723-5.718,4.393-6.571,7.267-1.655,14.633-2.673,22.071-1.325C3862.431,2195.75,3866.781,2201.032,3866.121,2207.03Z" transform="translate(0 4.714)" fill="#2b6b84"/></g></g></svg>